<svg id="Capa_1" data-name="Capa 1" xmlns="http://www.w3.org/2000/svg" viewBox="0 0 22.03 24.8"><defs><style>.cls-1{fill:#d5007f;}</style></defs><title>Mesa de trabajo 82</title><path class="cls-1" d="M19.7,7.85v0a.73.73,0,0,0-.21-.5L15,2.86h0s0,0,0,0l-.08-.06h0l-.05,0-.07,0h0l-.07,0-.06,0H5.12a.71.71,0,0,0-.71.71V5.64H2.26a.71.71,0,0,0-.71.71v8.77a.71.71,0,0,0,.71.71H4.41V22a.7.7,0,0,0,.71.7H19a.7.7,0,0,0,.7-.7V7.85Zm-4.51-2.8,2.1,2.1h-2.1ZM3,7.05h7.67v7.37H3Zm12.7,5v2.34H12.78V12.08ZM8.48,18.15V15.83h2.89v2.32Zm4.3-2.32h2.88v2.32H12.78Zm-7,5.41V15.83H7.07v3a.71.71,0,0,0,.71.7h8.59a.71.71,0,0,0,.7-.7V11.38a.7.7,0,0,0-.7-.7H12.23a.41.41,0,0,0-.16,0h0V6.35a.71.71,0,0,0-.7-.71H5.82V4.06h8V7.85a.7.7,0,0,0,.7.71h3.8V21.24Z"/><path class="cls-1" d="M8.09,12.92a.7.7,0,0,0,.5.21.67.67,0,0,0,.49-.21.7.7,0,0,0,0-1L7.93,10.77,9.08,9.62a.71.71,0,0,0,0-1,.7.7,0,0,0-1,0L6.93,9.77,5.77,8.62a.7.7,0,0,0-1,1l1.16,1.15L4.79,11.92a.71.71,0,0,0,.49,1.21.69.69,0,0,0,.5-.21l1.15-1.15Z"/></svg>