<svg id="Capa_1" data-name="Capa 1" xmlns="http://www.w3.org/2000/svg" viewBox="0 0 22.03 24.8"><defs><style>.cls-1{fill:#d5007f;}</style></defs><title>Mesa de trabajo 83</title><path class="cls-1" d="M18.82,7.4V7.35a.67.67,0,0,0-.21-.5L14,2.29h0l0,0L13.9,2.2h0l-.05,0-.07-.05h0l-.07,0h-.06l-.14,0H3.92a.71.71,0,0,0-.7.71V21.37a.71.71,0,0,0,.7.71H18.11a.71.71,0,0,0,.71-.71V7.4Zm-4.6-2.89L16.4,6.69H14.22ZM4.63,20.66V3.5h8.18V7.4a.7.7,0,0,0,.7.7h3.9V20.66Z"/><path class="cls-1" d="M15.22,15.65a5.1,5.1,0,0,0-2-.31L11.75,13a4.42,4.42,0,0,0,.93-2.06,1.44,1.44,0,0,0-1.52-1.43A1.45,1.45,0,0,0,9.65,11a4.4,4.4,0,0,0,.82,2L9,15.34a5.1,5.1,0,0,0-2,.31,1.46,1.46,0,0,0-.61,2,1.39,1.39,0,0,0,1.27.79h0a1.41,1.41,0,0,0,.69-.17,4.81,4.81,0,0,0,1.37-1.8h2.8a4.81,4.81,0,0,0,1.37,1.8,1.44,1.44,0,0,0,.69.17,1.39,1.39,0,0,0,1.27-.79A1.46,1.46,0,0,0,15.22,15.65ZM7.77,17.27l-.13,0a.26.26,0,0,1-.26-.16.33.33,0,0,1,.12-.47,2.68,2.68,0,0,1,.88-.16A2.62,2.62,0,0,1,7.77,17.27Zm3.39-6.66c.35,0,.39.21.39.3a2.67,2.67,0,0,1-.41.94,2.29,2.29,0,0,1-.35-.89A.32.32,0,0,1,11.16,10.61Zm-.82,4.71.76-1.24.76,1.24Zm4.48,1.81a.26.26,0,0,1-.26.16l-.13,0a2.62,2.62,0,0,1-.61-.77,2.68,2.68,0,0,1,.88.16A.33.33,0,0,1,14.82,17.13Z"/></svg>